<?xml version="1.0" encoding="utf-8"?>
<!-- Generator: Adobe Illustrator 27.5.0, SVG Export Plug-In . SVG Version: 6.00 Build 0)  -->
<svg version="1.1" id="Laag_2" xmlns="http://www.w3.org/2000/svg" xmlns:xlink="http://www.w3.org/1999/xlink" x="0px" y="0px"
	 viewBox="0 0 370.9 370.9" style="enable-background:new 0 0 370.9 370.9;" xml:space="preserve">
<style type="text/css">
	.st0{enable-background:new    ;}
	.st1{fill:#5BC5F2;}
</style>
<g class="st0">
	<path class="st1" d="M72.3,284.1c-27.1,0-38.8-16.1-38.8-28.7c0-10.7,4.4-16.5,7.8-21.4l124-197.5C177.5,17.1,193,8.3,221.8,8.3
		c32.1,0,63.7,18,63.7,62.3v149.3h9.4c21.6,0,38.8,12.6,38.8,32.1c0,19.5-17.2,32.1-38.8,32.1h-9.4v41.3c0,25.8-11.6,37.9-39.9,37.9
		s-39.9-12.2-39.9-37.9v-41.3H72.3z M205.7,84.2h-1.1l-74.7,135.7h75.8V84.2z"/>
</g>
</svg>
