<?xml version="1.0" encoding="utf-8"?>
<!-- Generator: Adobe Illustrator 27.5.0, SVG Export Plug-In . SVG Version: 6.00 Build 0)  -->
<svg version="1.1" id="Laag_2" xmlns="http://www.w3.org/2000/svg" xmlns:xlink="http://www.w3.org/1999/xlink" x="0px" y="0px"
	 viewBox="0 0 370.9 370.9" style="enable-background:new 0 0 370.9 370.9;" xml:space="preserve">
<style type="text/css">
	.st0{enable-background:new    ;}
	.st1{fill:#5BC5F2;}
</style>
<g class="st0">
	<path class="st1" d="M277.7,296c24.4,0,43.2,9.7,43.2,32.1c0,22.4-18.8,32.1-39.9,32.1H96.1c-24.4,0-43.2-9.7-43.2-32.1
		c0-10.2,7.2-19,12.7-24.8c45.9-48.2,95.8-91.9,137.8-145.4c10-12.6,19.4-27.7,19.4-45.2c0-19.9-17.2-37.5-39.9-37.5
		c-63.7,0-33.2,78.8-86.4,78.8c-26.6,0-40.4-16.5-40.4-35.5c0-61.3,62-110.4,130.1-110.4c68.1,0,122.9,39.4,122.9,101.2
		c0,67.6-85.8,134.7-132.9,186.8H277.7z"/>
</g>
</svg>
