<?xml version="1.0" encoding="utf-8"?>
<!-- Generator: Adobe Illustrator 27.5.0, SVG Export Plug-In . SVG Version: 6.00 Build 0)  -->
<svg version="1.1" id="Laag_2" xmlns="http://www.w3.org/2000/svg" xmlns:xlink="http://www.w3.org/1999/xlink" x="0px" y="0px"
	 viewBox="0 0 370.9 370.9" style="enable-background:new 0 0 370.9 370.9;" xml:space="preserve">
<style type="text/css">
	.st0{enable-background:new    ;}
	.st1{fill:#5BC5F2;}
</style>
<g class="st0">
	<path class="st1" d="M297.7,95.4c0,30.6-14.9,57.4-45.4,74.4c39.9,16.1,67.5,48.6,67.5,87.1c0,58.4-60.9,107.5-139.5,107.5
		c-81.9,0-132.9-53-132.9-91.4c0-19,22.7-32.6,42.6-32.6c37.6,0,28.8,56.9,91.3,56.9c28.8,0,52-19.5,52-45.2
		c0-68.1-94.1-18-94.1-75.4c0-51.1,78.6-16.5,78.6-70.5c0-18.5-14.9-32.6-39.9-32.6c-52.6,0-45.4,47.7-83,47.7c-22.7,0-36-18-36-36
		c0-37.9,59.2-78.8,120.7-78.8C259.5,6.4,297.7,57.5,297.7,95.4z"/>
</g>
</svg>
