<?xml version="1.0" encoding="utf-8"?>
<!-- Generator: Adobe Illustrator 27.5.0, SVG Export Plug-In . SVG Version: 6.00 Build 0)  -->
<svg version="1.1" id="Laag_2" xmlns="http://www.w3.org/2000/svg" xmlns:xlink="http://www.w3.org/1999/xlink" x="0px" y="0px"
	 viewBox="0 0 370.9 370.9" style="enable-background:new 0 0 370.9 370.9;" xml:space="preserve">
<style type="text/css">
	.st0{enable-background:new    ;}
	.st1{fill:#5BC5F2;}
</style>
<g class="st0">
	<path class="st1" d="M161.8,129.9c13.3-2.4,27.7-4.9,41.5-4.9c67,0,114.6,46.7,114.6,103.6c0,81.2-50.9,134.7-146.7,134.7
		c-39.3,0-121.8-22.4-121.8-65.2c0-18,17.2-33.1,37.6-33.1c22.1,0,48.7,31.1,85.8,31.1c38.8,0,58.7-33.1,58.7-63.7
		c0-29.2-18.8-49.1-53.1-49.1c-32.1,0-37.1,16.1-65.3,16.1c-21.6,0-32.7-14.6-32.7-22.9c0-6.3,1.1-11.2,1.7-16.5L95.9,57.4
		c6.1-37.9,16.6-46.2,43.2-46.2h133.4c25.5,0,40.4,13.1,40.4,30.6c0,33.6-28.8,36.5-38.8,36.5H170.1L161.8,129.9z"/>
</g>
</svg>
