<?xml version="1.0" encoding="utf-8"?>
<!-- Generator: Adobe Illustrator 27.5.0, SVG Export Plug-In . SVG Version: 6.00 Build 0)  -->
<svg version="1.1" id="Laag_2" xmlns="http://www.w3.org/2000/svg" xmlns:xlink="http://www.w3.org/1999/xlink" x="0px" y="0px"
	 viewBox="0 0 370.9 370.9" style="enable-background:new 0 0 370.9 370.9;" xml:space="preserve">
<style type="text/css">
	.st0{fill:#FFFFFF;}
	.st1{fill:#5BC5F2;}
	.st2{enable-background:new    ;}
</style>
<circle class="st0" cx="185.4" cy="185.4" r="185.7"/>
<path class="st1" d="M292.4,104.1l-90-52c-10.5-6.1-23.4-6.1-33.9,0l-90,52c-10.5,6.1-16.9,17.3-16.9,29.4v103.9
	c0,12.1,6.5,23.3,16.9,29.4l90,52c10.5,6.1,23.4,6.1,33.9,0l90-52c10.5-6.1,16.9-17.3,16.9-29.4V133.5
	C309.4,121.4,302.9,110.2,292.4,104.1z M153.3,138.2c-6.7,0-10.9,0.8-12.2,2.2s-2,4.1-2.1,8.1c-0.3,11.1-0.6,18.4-1,21.7
	c-0.5,3.4-1.6,6.6-3.1,9.6c-1.6,3-4.6,6-9,8.7c4.2,2.6,7.2,5.6,9.1,9.1c1.9,3.3,3.1,8.5,3.3,15.1l1.1,20.2c0.3,1.9,1.5,3.5,3.1,4.5
	c1.5,0.9,5.1,1.5,10.8,1.5v16.7h-3.6c-7.4,0-13.1-0.9-17.2-2.5c-3.9-1.5-7-4.5-8.8-8.3c-1.8-3.9-2.7-10.2-2.7-18.7
	c0-9.6-0.4-15.6-1.1-18.2c-0.6-2.7-1.9-5.3-3.7-7.4c-1.8-2.1-5.4-3.3-10.5-3.5v-16.8c5,0,8.9-1.5,11.4-4.5c2.6-2.9,3.9-9.5,3.9-19.9
	c0-7.8,0.2-13.6,0.9-17.4c0.4-3.5,1.9-6.8,4.2-9.5c2.3-2.6,5.3-4.6,8.7-5.6c3.5-1,8.5-1.7,15-1.7h3.7L153.3,138.2z M265.3,197
	c-5.2,0-8.9,1.5-11.5,4.5c-2.5,2.9-3.8,9.6-3.8,19.9c0.1,5.9-0.2,11.7-0.9,17.5c-0.4,3.5-1.9,6.8-4.2,9.6c-2.3,2.6-5.3,4.5-8.7,5.6
	c-3.5,1-8.5,1.6-15,1.6h-3.8V239c6.6,0,10.5-0.7,12-2c1.3-1.3,2.2-4.1,2.2-8.3c0.3-11.9,0.8-19.6,1.3-22.9c0.6-3.3,1.8-6.6,3.5-9.5
	c2-3.2,4.9-5.8,8.2-7.6c-3.9-2.7-6.8-5.2-8.4-7.7c-1.6-2.5-2.7-5.4-3.2-8.3c-0.5-2.9-0.9-8.3-1.2-16.5c-0.3-7.9-0.7-12.5-1-13.7
	s-1.3-2.1-2.7-3s-5-1.3-10.9-1.3v-16.7h3.7c7.5,0,13.2,0.9,17.3,2.6c3.9,1.5,7.1,4.5,8.8,8.4c1.9,3.8,2.9,10,2.9,18.7
	c0,9.8,0.3,16,1,18.6c0.8,2.6,2.1,4.9,3.9,6.9c1.8,2.2,5.2,3.2,10.4,3.5L265.3,197z"/>
<g class="st2">
	<path d="M149.2,280.9c0-3.8,2.4-5.9,5.7-5.9c3.3,0,5.7,2.1,5.7,5.9v26.5c0,7,4.5,12.5,11.7,12.5c6.9,0,11.6-5.9,11.6-12.5v-26.5
		c0-3.8,2.4-5.9,5.7-5.9c3.3,0,5.7,2.1,5.7,5.9v27.1c0,12.8-10.5,22.4-23,22.4c-12.7,0-23.1-9.5-23.1-22.4V280.9z"/>
	<path d="M201.7,280.9c0-3.8,2.4-5.9,5.7-5.9c3.3,0,5.7,2.1,5.7,5.9v43.2c0,3.8-2.4,5.9-5.7,5.9c-3.3,0-5.7-2.1-5.7-5.9V280.9z"/>
</g>
<g class="st2">
	<path d="M74.2,66.2c0-3,1.5-5.2,4.7-5.2h14.9c2.9,0,4.3,2,4.3,4.1c0,2-1.4,4.1-4.3,4.1H83.2V78H93c2.9,0,4.4,2,4.4,4.1
		c0,2-1.5,4.1-4.4,4.1h-9.8v9.1h11.1c2.9,0,4.3,2,4.3,4.1c0,2-1.4,4.1-4.3,4.1H78.8c-2.6,0-4.6-1.8-4.6-4.5V66.2z"/>
	<path d="M112.4,80.8l-9.7-13.2c-0.6-0.8-1-1.7-1-2.6c0-2.6,2-4.4,4.6-4.4c1.5,0,3.1,1,3.9,2.2l7.4,10.6l7.4-10.6
		c0.8-1.2,2.4-2.2,3.9-2.2c2.6,0,4.6,1.7,4.6,4.4c0,1-0.4,1.9-1,2.6l-9.7,13.2l11.9,16c0.5,0.7,1,1.8,1,3.1c0,2.5-1.9,4.2-4.6,4.2
		c-1.6,0-2.8-0.7-3.7-2l-9.8-13.7l-9.8,13.7c-0.9,1.3-2.1,2-3.7,2c-2.6,0-4.6-1.7-4.6-4.2c0-1.3,0.5-2.4,1-3.1L112.4,80.8z"/>
	<path d="M138.7,65.6c0-2.8,1.7-4.7,4.7-4.7H154c8.8,0,15.4,5.8,15.4,14.3c0,8.8-6.8,14.2-15,14.2h-6.7v9.8c0,3-1.9,4.7-4.5,4.7
		s-4.5-1.7-4.5-4.7V65.6z M147.7,81.6h6.1c3.8,0,6.2-2.8,6.2-6.4c0-3.6-2.4-6.4-6.2-6.4h-6.1V81.6z"/>
	<path d="M172,65.3c0-3,1.9-4.7,4.5-4.7s4.5,1.7,4.5,4.7v30.1h10.7c3.1,0,4.4,2.3,4.3,4.3c-0.1,2-1.7,4-4.3,4h-15
		c-2.9,0-4.7-1.9-4.7-4.9V65.3z"/>
	<path d="M195.9,82.3c0-12.5,8.4-22.1,20.6-22.1c12.1,0,20.6,9.9,20.6,22.1c0,12.4-8.3,22.1-20.6,22.1
		C204.4,104.4,195.9,94.7,195.9,82.3z M227.8,82.3c0-7.3-3.8-13.8-11.3-13.8c-7.5,0-11.3,6.5-11.3,13.8c0,7.3,3.7,13.8,11.3,13.8
		C224.2,96.1,227.8,89.6,227.8,82.3z"/>
	<path d="M240.9,65.6c0-2.9,1.6-4.7,4.6-4.7h10.6c9.2,0,14.9,4.1,14.9,13.6c0,6.6-5,10.4-11.1,11.3l10.2,10.9
		c0.8,0.9,1.2,1.8,1.2,2.6c0,2.3-1.9,4.6-4.5,4.6c-1.1,0-2.5-0.4-3.5-1.6L250,86.3h-0.1v13c0,3-1.9,4.7-4.5,4.7s-4.5-1.7-4.5-4.7
		V65.6z M249.9,79.8h6.2c3.3,0,5.6-2,5.6-5.3c0-3.4-2.3-5.3-5.6-5.3h-6.2V79.8z"/>
	<path d="M274.3,66.2c0-3,1.5-5.2,4.7-5.2h14.9c2.9,0,4.3,2,4.3,4.1c0,2-1.4,4.1-4.3,4.1h-10.6V78h9.8c2.9,0,4.4,2,4.4,4.1
		c0,2-1.5,4.1-4.4,4.1h-9.8v9.1h11.1c2.9,0,4.3,2,4.3,4.1c0,2-1.4,4.1-4.3,4.1h-15.5c-2.6,0-4.6-1.8-4.6-4.5V66.2z"/>
</g>
</svg>
